<svg id="aed635ec-4db4-4b22-a045-dd9f59a6cdc3" data-name="Layer 1" xmlns="http://www.w3.org/2000/svg" xmlns:xlink="http://www.w3.org/1999/xlink" width="551.63593" height="84.88208" viewBox="0 0 551.63593 84.88208"><defs><clipPath id="18bc1e07-00ce-4d3b-95de-303f40d3f53d" transform="translate(4.81796 4.44104)"><path d="M507.28494,0.98108a1.14219,1.14219,0,0,0-1.35089.67578l-11.905,40.105A9.72218,9.72218,0,0,0,493.438,44.548v1.85791a0.948,0.948,0,0,0,1.09766,1.09814h28.53821V63.03894a0.98143,0.98143,0,0,0,1.0976,1.0979h4.30609a0.9814,0.9814,0,0,0,1.09766-1.0979V47.504h11.06067a0.95089,0.95089,0,0,0,1.18213-1.09814V42.86a0.95521,0.95521,0,0,0-1.18213-1.01294H529.57516v-20.095c0-.84521-0.50665-1.01416-1.351-0.676l-4.3905,1.77295a1.23645,1.23645,0,0,0-.75989,1.26685V41.847H500.446l11.905-39.59912c0.16882-.76.08441-1.26685-0.84436-1.26685h-4.22162ZM462.70444,6.21594c13.17151,0,16.29547,6.16406,16.29547,26.427,0,20.34912-3.124,26.259-16.29547,26.259-13.087,0-16.21112-5.90991-16.21112-26.259C446.49332,12.38,449.61746,6.21594,462.70444,6.21594Zm0-5.657c-18.3219,0-22.62793,7.34595-22.62793,32.084,0,24.739,4.306,31.916,22.62793,31.916s22.7124-7.177,22.7124-31.916C485.41684,7.90491,481.02634.559,462.70444,0.559Zm-64.42212.42212a1.14227,1.14227,0,0,0-1.351.67578l-11.905,40.105a9.72394,9.72394,0,0,0-.591,2.78613v1.85791a0.94794,0.94794,0,0,0,1.0976,1.09814h28.53833V63.03894a0.98136,0.98136,0,0,0,1.0976,1.0979h4.30609a0.98141,0.98141,0,0,0,1.0976-1.0979V47.504h11.06067a0.95085,0.95085,0,0,0,1.182-1.09814V42.86a0.95516,0.95516,0,0,0-1.182-1.01294H420.57254v-20.095c0-.84521-0.50659-1.01416-1.35089-0.676l-4.3905,1.77295a1.23645,1.23645,0,0,0-.75989,1.26685V41.847h-22.628l11.905-39.59912c0.16888-.76.08447-1.26685-0.8443-1.26685h-4.22162ZM347.45383,15.84094c-9.0343,0-16.21106,1.689-16.21106,12.91895V62.786a1.14706,1.14706,0,0,0,1.26648,1.35083h12.24268a1.14714,1.14714,0,0,0,1.26654-1.35083V32.72791c0-3.63086,1.51978-4.22192,5.15039-4.22192h8.35876a1.21111,1.21111,0,0,0,1.43542-1.26611V18.62805a1.48242,1.48242,0,0,0-1.43542-1.77319A71.86041,71.86041,0,0,0,347.45383,15.84094ZM301.26913,28.506c6.41693,0,7.68329,2.364,7.68329,11.73608,0,9.28784-1.26636,11.65186-7.68329,11.65186s-7.68341-2.364-7.68341-11.65186C293.58572,30.87,294.85226,28.506,301.26913,28.506Zm0-12.665c-18.15308,0-22.45911,4.813-22.45911,24.40112,0,19.50391,4.306,24.31689,22.45911,24.31689s22.45911-4.813,22.45911-24.31689C323.72824,20.65393,319.42215,15.84094,301.26913,15.84094Zm-39.09241,0c-9.0343,0-16.21106,1.689-16.21106,12.91895V62.786a1.1471,1.1471,0,0,0,1.26648,1.35083h12.2428a1.1471,1.1471,0,0,0,1.26648-1.35083V32.72791c0-3.63086,1.51984-4.22192,5.15039-4.22192h8.35883a1.21113,1.21113,0,0,0,1.43542-1.26611V18.62805a1.48245,1.48245,0,0,0-1.43542-1.77319A71.86278,71.86278,0,0,0,262.17673,15.84094Zm-35.03961,0c-9.0343,0-16.211,1.689-16.211,12.91895V62.786a1.1471,1.1471,0,0,0,1.26654,1.35083h12.24268a1.1471,1.1471,0,0,0,1.26648-1.35083V32.72791c0-3.63086,1.51984-4.22192,5.15045-4.22192H239.211a1.21111,1.21111,0,0,0,1.43542-1.26611V18.62805a1.48245,1.48245,0,0,0-1.43542-1.77319A71.86227,71.86227,0,0,0,227.13712,15.84094ZM182.38785,28.506c4.89709,0,6.92346,1.689,6.92346,7.42993H175.12665C175.12665,30.19495,177.40634,28.506,182.38785,28.506Zm0-12.665c-17.64642,0-22.20581,4.813-22.20581,24.40112,0,19.50391,4.55939,24.31689,22.20581,24.31689a90.823,90.823,0,0,0,17.2243-1.35107,1.23312,1.23312,0,0,0,1.182-1.43481V53.161a1.1196,1.1196,0,0,0-1.26654-1.26709H183.992c-6.58569,0-8.6965-.76-8.781-7.00806h26.343c1.942,0,2.533-.50586,2.533-2.27979V39.98889C204.08707,20.65393,199.78091,15.84094,182.38785,15.84094Z" style="fill:none;clip-rule:evenodd"/></clipPath><clipPath id="3005acbc-cddd-4116-9ed8-5730bafe8497" transform="translate(4.81796 4.44104)"><path d="M139.21155,30.0199a51.91059,51.91059,0,0,0-2.5246-8.647,46.44061,46.44061,0,0,0-4.1521-8.073,76.14753,76.14753,0,0,0-5.50861-7.446L126.90033,5.705H113.44025V7.3219l0.1376,0.124a47.8701,47.8701,0,0,1,5.3627,5.74414,44.65487,44.65487,0,0,1,4.73239,7.50879,45.94076,45.94076,0,0,1,3.38251,9.16016,42.88409,42.88409,0,0,1,1.29977,10.71289,42.51214,42.51214,0,0,1-1.2648,10.748,47.26978,47.26978,0,0,1-3.41669,9.125,45.75337,45.75337,0,0,1-4.70071,7.44189,44.0862,44.0862,0,0,1-5.3927,5.80908l-0.14008.125V75.441h13.45929l0.12592-.15015a72.13138,72.13138,0,0,0,5.4227-7.324,49.31742,49.31742,0,0,0,4.20209-8.12085,46.88973,46.88973,0,0,0,2.59631-9.00806A55.35647,55.35647,0,0,0,140.182,40.5719,52.92006,52.92006,0,0,0,139.21155,30.0199ZM105.45413,49.26306c-4.7515,0-5.68948-1.75122-5.68948-8.62915,0-6.94092.938-8.69189,5.68948-8.69189,4.7532,0,5.69119,1.751,5.69119,8.69189C111.14532,47.51184,110.20734,49.26306,105.45413,49.26306Zm16.63251-8.62915c0-14.50586-3.1882-18.071-16.63251-18.071s-16.63251,3.56519-16.63251,18.071c0,14.44409,3.18832,18.00806,16.63251,18.00806S122.08664,55.078,122.08664,40.63391Zm-64.44339,9.041h6.16888a1.52044,1.52044,0,0,0,1.50571-1.332,8.46467,8.46467,0,0,1,1.85681-4.614,4.79359,4.79359,0,0,1,3.43338-1.21,4.87331,4.87331,0,0,1,3.4101,1.189A8.529,8.529,0,0,1,75.89325,48.36a1.51282,1.51282,0,0,0,1.50238,1.31494h6.1756a1.5175,1.5175,0,0,0,1.51242-1.65405c-0.2326-2.606-1.13052-7.25684-4.4772-10.69287A13.57792,13.57792,0,0,0,70.608,33.347a13.58232,13.58232,0,0,0-10.005,3.98389c-3.345,3.436-4.24048,8.084-4.47229,10.68994A1.51706,1.51706,0,0,0,57.64325,49.67493ZM35.27063,49.203c-4.7515,0-5.68948-1.751-5.68948-8.62915,0-6.94092.938-8.69189,5.68948-8.69189s5.68961,1.751,5.68961,8.69189C40.96024,47.452,40.02225,49.203,35.27063,49.203Zm0-26.7c-13.44418,0-16.63251,3.56494-16.63251,18.0708,0,14.44409,3.18832,18.009,16.63251,18.009,13.4426,0,16.6326-3.56494,16.6326-18.009C51.90323,26.068,48.71323,22.50305,35.27063,22.50305ZM21.39185,67.74084a45.78926,45.78926,0,0,1-4.6998-7.439,47.18381,47.18381,0,0,1-3.4176-9.12793,42.51387,42.51387,0,0,1-1.2648-10.74707A42.848,42.848,0,0,1,13.30945,29.713a46.01826,46.01826,0,0,1,3.38089-9.15894,44.67083,44.67083,0,0,1,4.7341-7.509A47.65585,47.65585,0,0,1,26.787,7.3009l0.1376-.125V5.559H13.46375l-0.12512.14893a76.15775,76.15775,0,0,0-5.5094,7.446,46.41484,46.41484,0,0,0-4.15128,8.073,51.88941,51.88941,0,0,0-2.5246,8.64795A52.90306,52.90306,0,0,0,.182,40.42688,55.30091,55.30091,0,0,0,1.11835,50.693a46.89987,46.89987,0,0,0,2.59628,9.00708,49.11589,49.11589,0,0,0,4.20212,8.12085,72.01956,72.01956,0,0,0,5.42279,7.325l0.125,0.14917H26.92465V73.67493l-0.14011-.124A44.15863,44.15863,0,0,1,21.39185,67.74084Z" style="fill:none;clip-rule:evenodd"/></clipPath></defs><title>Untitled-2</title><g style="clip-path:url(#18bc1e07-00ce-4d3b-95de-303f40d3f53d)"><rect x="160" width="391.63593" height="74" style="fill:#fff"/></g><g style="clip-path:url(#3005acbc-cddd-4116-9ed8-5730bafe8497)"><rect y="5" width="150" height="79.88208" style="fill:#fff"/></g></svg>