<?xml version="1.0" encoding="utf-8"?>
<!-- Generator: Adobe Illustrator 16.0.0, SVG Export Plug-In . SVG Version: 6.00 Build 0)  -->
<!DOCTYPE svg PUBLIC "-//W3C//DTD SVG 1.1//EN" "http://www.w3.org/Graphics/SVG/1.1/DTD/svg11.dtd">
<svg version="1.1" id="Layer_1" xmlns="http://www.w3.org/2000/svg" xmlns:xlink="http://www.w3.org/1999/xlink" x="0px" y="0px"
	 width="300px" height="300px" viewBox="0 0 300 300" enable-background="new 0 0 300 300" xml:space="preserve">
<g>
	<path d="M34.223,177.548c-3.679-0.894-8.707-1.012-10.963-1.006c-14.315,0.03-17.08,3.712-17.046,18.606
		c0.03,14.894,2.812,18.629,17.127,18.597c2.256-0.006,7.284-0.146,10.959-1.056c0.708-0.195,1.093-0.454,1.093-1.356l-0.015-6.253
		c-0.002-0.711-0.389-1.031-1.163-1.031l-10.896,0.024c-4.9,0.01-5.872-1.792-5.887-8.949c-0.015-7.092,0.95-8.901,5.85-8.911
		l10.895-0.024c0.774-0.002,1.161-0.324,1.161-1.034l-0.015-6.253C35.319,177.998,34.933,177.742,34.223,177.548"/>
	<path d="M57.152,176.468c-13.475,0.028-16.95,3.711-16.916,18.671c0.03,14.894,3.522,18.562,16.997,18.531
		c4.45-0.01,9.543-0.277,13.152-1.06c0.579-0.13,0.901-0.324,0.899-1.097l-0.013-6.577c-0.001-0.645-0.324-0.967-0.968-0.965
		l-11.865,0.024c-5.028,0.012-6.642-0.565-6.717-5.335l20.118-0.046c1.481-0.003,1.932-0.392,1.93-1.743l-0.003-1.999
		C73.73,180.107,70.435,176.438,57.152,176.468 M51.642,191.825c-0.009-4.385,1.728-5.678,5.533-5.686
		c3.739-0.009,5.288,1.278,5.297,5.661L51.642,191.825z"/>
	<path d="M101.042,177.146c-2.708-0.576-7.224-0.76-9.222-0.756c-6.899,0.016-12.375,1.319-12.359,9.893l0.057,25.984
		c0,0.71,0.324,1.031,0.971,1.031l9.347-0.021c0.646,0,0.967-0.324,0.967-1.032l-0.051-22.954c-0.005-2.774,1.155-3.229,3.926-3.234
		l6.383-0.013c0.71-0.002,1.097-0.324,1.095-0.971l-0.015-6.575C102.139,177.595,101.816,177.273,101.042,177.146"/>
	<path d="M122.168,176.325c-13.861,0.032-17.142,3.714-17.11,18.674c0.032,14.894,3.328,18.562,17.191,18.531
		c13.863-0.03,17.142-3.713,17.112-18.606C139.329,179.964,136.031,176.295,122.168,176.325 M122.228,203.858
		c-4.9,0.012-5.871-1.792-5.885-8.886c-0.015-7.157,0.948-8.965,5.848-8.975c4.898-0.011,5.871,1.793,5.887,8.95
		C128.093,202.04,127.128,203.848,122.228,203.858"/>
	<path d="M172.698,177.248c-3.677-0.893-8.706-1.014-10.962-1.008c-14.315,0.032-17.08,3.713-17.046,18.608
		c0.03,14.894,2.812,18.627,17.127,18.597c2.256-0.006,7.283-0.146,10.959-1.056c0.708-0.197,1.095-0.456,1.093-1.356l-0.014-6.255
		c-0.004-0.711-0.39-1.031-1.164-1.031l-10.896,0.026c-4.9,0.01-5.873-1.794-5.888-8.951c-0.015-7.092,0.948-8.899,5.85-8.908
		l10.896-0.026c0.772-0.002,1.159-0.324,1.159-1.035l-0.015-6.251C173.796,177.697,173.409,177.44,172.698,177.248"/>
	<path d="M195.628,176.167c-13.475,0.03-16.947,3.71-16.916,18.67c0.032,14.896,3.522,18.563,16.997,18.533
		c4.45-0.01,9.544-0.279,13.152-1.06c0.579-0.132,0.901-0.324,0.899-1.099l-0.014-6.577c-0.002-0.645-0.324-0.967-0.969-0.965
		l-11.865,0.026c-5.027,0.012-6.641-0.565-6.716-5.337l20.117-0.043c1.481-0.004,1.934-0.393,1.93-1.745l-0.004-2
		C212.207,179.806,208.912,176.139,195.628,176.167 M190.118,191.524c-0.01-4.384,1.728-5.677,5.532-5.685
		c3.739-0.011,5.289,1.276,5.298,5.661L190.118,191.524z"/>
	<path d="M239.518,176.845c-2.71-0.574-7.224-0.757-9.223-0.753c-6.897,0.015-12.374,1.316-12.355,9.892l0.057,25.984
		c0,0.711,0.324,1.031,0.969,1.031l9.35-0.022c0.645,0,0.965-0.324,0.965-1.031l-0.051-22.956c-0.006-2.772,1.155-3.227,3.925-3.232
		l6.384-0.013c0.71-0.002,1.097-0.324,1.095-0.971l-0.014-6.575C240.616,177.296,240.293,176.974,239.518,176.845"/>
	<path d="M260.644,176.025c-13.862,0.03-17.142,3.713-17.107,18.672c0.03,14.895,3.326,18.562,17.19,18.533
		c13.861-0.032,17.143-3.715,17.108-18.608C277.805,179.662,274.509,175.995,260.644,176.025 M260.704,203.557
		c-4.899,0.014-5.872-1.792-5.888-8.884c-0.015-7.157,0.948-8.967,5.851-8.976c4.899-0.012,5.87,1.794,5.885,8.951
		C266.567,201.74,265.604,203.546,260.704,203.557"/>
	<path d="M288.59,176.415c-3.188,0-5.148,1.682-5.148,5.324c0,3.641,1.96,5.358,5.148,5.358c3.293,0,5.219-1.718,5.219-5.358
		C293.809,178.097,291.883,176.415,288.59,176.415 M288.624,186.081c-2.591,0-3.993-1.332-3.993-4.342
		c0-3.081,1.402-4.344,3.993-4.344c2.521,0,3.993,1.263,3.993,4.344C292.617,184.749,291.146,186.081,288.624,186.081"/>
	<path d="M290.831,180.722c0-0.874-0.667-1.715-1.751-1.715h-2.031c-0.245,0-0.456,0.211-0.456,0.456v4.518
		c0,0.278,0.245,0.523,0.525,0.523c0.279,0,0.524-0.245,0.524-0.523v-1.54h0.736l1.364,1.856c0.107,0.138,0.245,0.207,0.421,0.207
		c0.28,0,0.491-0.207,0.491-0.49c0-0.069,0-0.173-0.105-0.314l-1.121-1.259C290.199,182.44,290.831,181.773,290.831,180.722
		 M288.938,181.528h-1.296v-1.611h1.296c0.561,0,0.843,0.353,0.843,0.805C289.781,181.249,289.499,181.528,288.938,181.528"/>
	<path d="M158.021,117.329h-21.137c-0.645,0-1.029,0.324-1.029,0.969v8.439c0,0.646,0.384,0.969,1.029,0.969h21.137
		c0.645,0,1.031-0.322,1.031-0.969v-8.439C159.053,117.653,158.666,117.329,158.021,117.329"/>
	<path d="M111.083,103.884c-13.865,0-17.153,3.677-17.153,18.634c0,14.894,3.289,18.571,17.153,18.571
		c13.861,0,17.152-3.677,17.152-18.571C128.234,107.561,124.944,103.884,111.083,103.884 M111.083,131.416
		c-4.9,0-5.868-1.805-5.868-8.897c0-7.157,0.968-8.963,5.868-8.963c4.898,0,5.867,1.806,5.867,8.963
		C116.949,129.61,115.981,131.416,111.083,131.416"/>
	<path d="M200.605,122.581c0-14.958-3.291-18.635-17.151-18.635c-13.863,0-17.151,3.677-17.151,18.635
		c0,14.894,3.288,18.57,17.151,18.57C197.314,141.151,200.605,137.475,200.605,122.581 M183.454,131.478
		c-4.9,0-5.867-1.806-5.867-8.897c0-7.156,0.967-8.963,5.867-8.963c4.899,0,5.868,1.808,5.868,8.963
		C189.322,129.672,188.354,131.478,183.454,131.478"/>
	<path d="M96.956,150.563c-1.791-2.288-3.42-4.87-4.845-7.67c-1.47-2.941-2.657-6.108-3.526-9.411
		c-0.865-3.294-1.302-7.022-1.302-11.083c0-3.89,0.448-7.608,1.338-11.047c0.893-3.447,2.065-6.624,3.488-9.445
		c1.495-2.942,3.138-5.548,4.881-7.744c1.749-2.197,3.609-4.191,5.529-5.923l0.142-0.126v-1.67H88.783l-0.13,0.154
		c-2.096,2.505-4.007,5.088-5.682,7.678c-1.681,2.599-3.121,5.397-4.28,8.324c-1.063,2.678-1.938,5.678-2.603,8.918
		c-0.667,3.24-1.003,6.901-1.003,10.881c0,3.643,0.324,7.207,0.965,10.586c0.639,3.384,1.54,6.509,2.676,9.287
		c1.206,2.968,2.667,5.788,4.334,8.375c1.662,2.578,3.543,5.121,5.592,7.553l0.13,0.152h13.878v-1.67l-0.145-0.128
		C100.622,154.871,98.748,152.856,96.956,150.563"/>
	<path d="M218.448,111.667c-0.665-3.24-1.541-6.24-2.603-8.918c-1.162-2.927-2.603-5.725-4.283-8.324
		c-1.672-2.589-3.585-5.173-5.679-7.678l-0.13-0.154h-13.88v1.669l0.142,0.126c1.92,1.732,3.78,3.724,5.529,5.923
		c1.743,2.195,3.385,4.802,4.881,7.742c1.423,2.821,2.595,6,3.488,9.445c0.888,3.441,1.34,7.16,1.34,11.047
		c0,4.063-0.44,7.791-1.304,11.083c-0.867,3.306-2.055,6.472-3.522,9.41c-1.427,2.803-3.057,5.384-4.847,7.674
		c-1.796,2.291-3.666,4.308-5.562,5.991l-0.146,0.126v1.672h13.878l0.13-0.155c2.049-2.431,3.932-4.973,5.594-7.551
		c1.668-2.59,3.125-5.407,4.331-8.375c1.138-2.778,2.039-5.904,2.68-9.287c0.639-3.381,0.965-6.942,0.965-10.587
		C219.451,118.569,219.112,114.905,218.448,111.667"/>
</g>
</svg>
