<?xml version="1.0" encoding="utf-8"?>
<!-- Generator: Adobe Illustrator 16.0.0, SVG Export Plug-In . SVG Version: 6.00 Build 0)  -->
<!DOCTYPE svg PUBLIC "-//W3C//DTD SVG 1.1//EN" "http://www.w3.org/Graphics/SVG/1.1/DTD/svg11.dtd">
<svg version="1.1" id="Layer_1" xmlns="http://www.w3.org/2000/svg" xmlns:xlink="http://www.w3.org/1999/xlink" x="0px" y="0px"
	 width="350px" height="150px" viewBox="0 0 350 150" enable-background="new 0 0 350 150" xml:space="preserve">
<g>
	<path fill="#FFFFFF" d="M46.445,106.463c-4.214-1.025-9.978-1.16-12.564-1.154c-16.404,0.035-19.572,4.254-19.535,21.322
		s3.223,21.35,19.627,21.312c2.586-0.006,8.35-0.166,12.559-1.209c0.813-0.223,1.255-0.52,1.253-1.555l-0.015-7.168
		c-0.002-0.812-0.446-1.182-1.333-1.18l-12.488,0.027c-5.615,0.012-6.728-2.055-6.746-10.256
		c-0.018-8.127,1.086-10.199,6.702-10.211l12.488-0.027c0.886-0.002,1.329-0.373,1.327-1.186l-0.016-7.168
		C47.702,106.979,47.258,106.684,46.445,106.463"/>
	<path fill="#FFFFFF" d="M72.723,105.225c-15.443,0.031-19.424,4.254-19.387,21.396c0.037,17.068,4.037,21.271,19.48,21.238
		c5.098-0.01,10.935-0.32,15.071-1.215c0.665-0.15,1.034-0.371,1.032-1.258l-0.016-7.537c-0.002-0.74-0.372-1.107-1.111-1.107
		l-13.596,0.031c-5.764,0.012-7.612-0.65-7.698-6.117l23.054-0.049c1.7-0.004,2.216-0.449,2.212-2.002l-0.005-2.289
		C91.723,109.395,87.944,105.191,72.723,105.225 M66.407,122.824c-0.011-5.025,1.981-6.508,6.341-6.516
		c4.285-0.012,6.062,1.465,6.073,6.488L66.407,122.824z"/>
	<path fill="#FFFFFF" d="M123.021,106.002c-3.105-0.658-8.278-0.869-10.569-0.865c-7.906,0.018-14.184,1.51-14.162,11.338
		l0.064,29.777c0.002,0.812,0.372,1.182,1.111,1.18l10.715-0.021c0.739-0.002,1.107-0.373,1.105-1.186l-0.058-26.305
		c-0.006-3.178,1.322-3.699,4.5-3.705l7.315-0.016c0.813-0.002,1.255-0.373,1.254-1.111l-0.017-7.537
		C124.277,106.516,123.907,106.148,123.021,106.002"/>
	<path fill="#FFFFFF" d="M147.232,105.062c-15.887,0.033-19.647,4.254-19.609,21.398c0.037,17.068,3.814,21.271,19.701,21.236
		c15.887-0.035,19.646-4.254,19.609-21.322C166.896,109.23,163.118,105.027,147.232,105.062 M147.3,136.613
		c-5.616,0.014-6.729-2.055-6.746-10.182c-0.018-8.201,1.086-10.273,6.702-10.285c5.615-0.012,6.728,2.053,6.746,10.256
		C154.02,134.529,152.916,136.602,147.3,136.613"/>
	<path fill="#FFFFFF" d="M205.14,106.119c-4.214-1.025-9.979-1.162-12.564-1.156c-16.403,0.037-19.572,4.256-19.535,21.324
		s3.223,21.348,19.626,21.312c2.586-0.006,8.351-0.166,12.56-1.209c0.812-0.225,1.255-0.52,1.253-1.555l-0.015-7.168
		c-0.002-0.812-0.447-1.182-1.333-1.18l-12.488,0.027c-5.616,0.012-6.729-2.055-6.746-10.258
		c-0.018-8.127,1.086-10.199,6.702-10.211l12.488-0.025c0.886-0.004,1.328-0.373,1.326-1.186l-0.016-7.168
		C206.396,106.633,205.952,106.338,205.14,106.119"/>
	<path fill="#FFFFFF" d="M231.417,104.879c-15.442,0.033-19.424,4.254-19.387,21.398c0.037,17.068,4.036,21.271,19.48,21.238
		c5.098-0.012,10.935-0.32,15.07-1.215c0.665-0.15,1.034-0.373,1.032-1.26l-0.017-7.537c-0.002-0.738-0.371-1.107-1.11-1.105
		l-13.596,0.029c-5.765,0.014-7.612-0.648-7.698-6.115l23.054-0.051c1.7-0.004,2.216-0.449,2.213-2l-0.005-2.291
		C250.417,109.051,246.64,104.846,231.417,104.879 M225.102,122.479c-0.012-5.023,1.98-6.506,6.34-6.516
		c4.286-0.01,6.062,1.465,6.074,6.49L225.102,122.479z"/>
	<path fill="#FFFFFF" d="M281.715,105.656c-3.104-0.658-8.278-0.869-10.568-0.863c-7.906,0.018-14.184,1.51-14.163,11.338
		l0.065,29.777c0.002,0.812,0.372,1.182,1.11,1.18l10.715-0.023c0.739-0.002,1.107-0.373,1.105-1.184l-0.058-26.307
		c-0.006-3.178,1.323-3.697,4.5-3.705l7.315-0.016c0.812-0.002,1.256-0.371,1.254-1.111l-0.017-7.537
		C282.973,106.172,282.602,105.803,281.715,105.656"/>
	<path fill="#FFFFFF" d="M305.927,104.717c-15.888,0.035-19.646,4.256-19.609,21.398c0.037,17.07,3.814,21.271,19.701,21.238
		c15.887-0.035,19.646-4.256,19.608-21.324C325.591,108.887,321.812,104.682,305.927,104.717 M305.994,136.27
		c-5.616,0.012-6.729-2.055-6.747-10.182c-0.017-8.203,1.086-10.273,6.703-10.287c5.615-0.012,6.729,2.055,6.746,10.256
		C312.714,134.186,311.609,136.258,305.994,136.27"/>
	<path fill="#FFFFFF" d="M337.95,105.164c-3.652,0-5.899,1.928-5.899,6.102s2.247,6.141,5.899,6.141c3.772,0,5.98-1.967,5.98-6.141
		S341.723,105.164,337.95,105.164 M337.99,116.242c-2.97,0-4.575-1.525-4.575-4.977c0-3.531,1.605-4.977,4.575-4.977
		c2.891,0,4.575,1.445,4.575,4.977C342.565,114.717,340.881,116.242,337.99,116.242"/>
	<path fill="#FFFFFF" d="M340.519,110.102c0-1.004-0.763-1.967-2.007-1.967h-2.328c-0.28,0-0.521,0.24-0.521,0.521v5.178
		c0,0.32,0.281,0.602,0.602,0.602c0.321,0,0.603-0.281,0.603-0.602v-1.766h0.843l1.564,2.127c0.12,0.16,0.281,0.24,0.481,0.24
		c0.321,0,0.562-0.24,0.562-0.562c0-0.08,0-0.201-0.119-0.361l-1.284-1.443C339.797,112.068,340.519,111.305,340.519,110.102
		 M338.352,111.025h-1.484v-1.848h1.484c0.643,0,0.963,0.402,0.963,0.924C339.314,110.703,338.994,111.025,338.352,111.025"/>
	<path fill="#FFFFFF" d="M188.32,37.452h-24.224c-0.738,0-1.181,0.369-1.181,1.107v9.675c0,0.739,0.443,1.108,1.181,1.108h24.224
		c0.739,0,1.182-0.369,1.182-1.108v-9.675C189.502,37.821,189.06,37.452,188.32,37.452"/>
	<path fill="#FFFFFF" d="M134.526,22.043c-15.887,0-19.655,4.212-19.655,21.355c-0.001,17.069,3.768,21.281,19.655,21.281
		c15.887,0,19.655-4.212,19.655-21.281C154.181,26.255,150.413,22.043,134.526,22.043 M134.526,53.596
		c-5.616,0-6.724-2.069-6.724-10.197c0-8.202,1.108-10.271,6.724-10.271c5.616,0,6.724,2.069,6.724,10.271
		C141.25,51.527,140.142,53.596,134.526,53.596"/>
	<path fill="#FFFFFF" d="M237.12,43.47c0-17.143-3.769-21.355-19.655-21.355c-15.888,0-19.655,4.212-19.655,21.355
		c0,17.069,3.768,21.281,19.655,21.281C233.352,64.75,237.12,60.539,237.12,43.47 M217.465,53.667
		c-5.616,0-6.725-2.069-6.725-10.197c0-8.202,1.108-10.271,6.725-10.271c5.615,0,6.724,2.069,6.724,10.271
		C224.188,51.598,223.08,53.667,217.465,53.667"/>
	<path fill="#FFFFFF" d="M118.338,75.538c-2.052-2.623-3.922-5.582-5.554-8.79c-1.685-3.37-3.045-7-4.039-10.786
		c-0.991-3.774-1.494-8.047-1.494-12.701c0-4.458,0.517-8.718,1.536-12.661c1.021-3.949,2.367-7.591,3.996-10.823
		c1.714-3.373,3.596-6.359,5.594-8.874c2.004-2.521,4.136-4.805,6.337-6.788l0.162-0.147V2.056h-15.907l-0.148,0.176
		c-2.4,2.871-4.591,5.832-6.51,8.799c-1.925,2.977-3.575,6.187-4.906,9.54c-1.217,3.069-2.221,6.507-2.984,10.219
		c-0.761,3.712-1.147,7.908-1.147,12.47c0,4.176,0.373,8.258,1.106,12.131c0.733,3.878,1.765,7.46,3.068,10.644
		c1.383,3.402,3.053,6.631,4.966,9.598c1.905,2.955,4.061,5.867,6.408,8.654l0.148,0.178h15.906v-1.914l-0.166-0.148
		C122.537,80.475,120.393,78.164,118.338,75.538"/>
	<path fill="#FFFFFF" d="M257.569,30.962c-0.763-3.712-1.767-7.15-2.984-10.219c-1.33-3.353-2.98-6.563-4.905-9.54
		c-1.918-2.967-4.109-5.928-6.511-8.799l-0.147-0.176h-15.907V4.14l0.163,0.147c2.2,1.983,4.332,4.267,6.337,6.788
		c1.997,2.515,3.879,5.501,5.593,8.872c1.63,3.234,2.976,6.876,3.997,10.825c1.02,3.943,1.535,8.203,1.535,12.661
		c0,4.654-0.503,8.927-1.494,12.701c-0.994,3.786-2.354,7.416-4.037,10.783c-1.634,3.211-3.504,6.17-5.556,8.794
		c-2.055,2.625-4.199,4.936-6.373,6.866l-0.165,0.146v1.914h15.906l0.148-0.176c2.347-2.789,4.502-5.701,6.407-8.656
		c1.913-2.967,3.583-6.196,4.966-9.596c1.304-3.186,2.336-6.768,3.068-10.646c0.733-3.873,1.106-7.955,1.106-12.131
		C258.717,38.871,258.33,34.674,257.569,30.962"/>
</g>
</svg>
