<svg xmlns="http://www.w3.org/2000/svg" viewBox="0 0 350 150"><style type="text/css">  
	.st0{fill:#FFFFFF;}
</style><path class="st0" d="M46.4 106.5c-4.2-1-10-1.2-12.6-1.2 -16.4 0-19.6 4.3-19.5 21.3S17.6 148 34 147.9c2.6 0 8.3-0.2 12.6-1.2 0.8-0.2 1.3-0.5 1.3-1.6l0-7.2c0-0.8-0.4-1.2-1.3-1.2l-12.5 0c-5.6 0-6.7-2.1-6.7-10.3 0-8.1 1.1-10.2 6.7-10.2l12.5 0c0.9 0 1.3-0.4 1.3-1.2l0-7.2C47.7 107 47.3 106.7 46.4 106.5"/><path class="st0" d="M72.7 105.2c-15.4 0-19.4 4.3-19.4 21.4 0 17.1 4 21.3 19.5 21.2 5.1 0 10.9-0.3 15.1-1.2 0.7-0.1 1-0.4 1-1.3l0-7.5c0-0.7-0.4-1.1-1.1-1.1l-13.6 0c-5.8 0-7.6-0.6-7.7-6.1l23.1 0c1.7 0 2.2-0.4 2.2-2l0-2.3C91.7 109.4 87.9 105.2 72.7 105.2M66.4 122.8c0-5 2-6.5 6.3-6.5 4.3 0 6.1 1.5 6.1 6.5L66.4 122.8z"/><path class="st0" d="M123 106c-3.1-0.7-8.3-0.9-10.6-0.9 -7.9 0-14.2 1.5-14.2 11.3l0.1 29.8c0 0.8 0.4 1.2 1.1 1.2l10.7 0c0.7 0 1.1-0.4 1.1-1.2l-0.1-26.3c0-3.2 1.3-3.7 4.5-3.7l7.3 0c0.8 0 1.3-0.4 1.3-1.1l0-7.5C124.3 106.5 123.9 106.1 123 106"/><path class="st0" d="M147.2 105.1c-15.9 0-19.6 4.3-19.6 21.4 0 17.1 3.8 21.3 19.7 21.2s19.6-4.3 19.6-21.3C166.9 109.2 163.1 105 147.2 105.1M147.3 136.6c-5.6 0-6.7-2.1-6.7-10.2 0-8.2 1.1-10.3 6.7-10.3 5.6 0 6.7 2.1 6.7 10.3C154 134.5 152.9 136.6 147.3 136.6"/><path class="st0" d="M205.1 106.1c-4.2-1-10-1.2-12.6-1.2 -16.4 0-19.6 4.3-19.5 21.3s3.2 21.3 19.6 21.3c2.6 0 8.4-0.2 12.6-1.2 0.8-0.2 1.3-0.5 1.3-1.6l0-7.2c0-0.8-0.4-1.2-1.3-1.2l-12.5 0c-5.6 0-6.7-2.1-6.7-10.3 0-8.1 1.1-10.2 6.7-10.2l12.5 0c0.9 0 1.3-0.4 1.3-1.2l0-7.2C206.4 106.6 206 106.3 205.1 106.1"/><path class="st0" d="M231.4 104.9c-15.4 0-19.4 4.3-19.4 21.4 0 17.1 4 21.3 19.5 21.2 5.1 0 10.9-0.3 15.1-1.2 0.7-0.1 1-0.4 1-1.3l0-7.5c0-0.7-0.4-1.1-1.1-1.1l-13.6 0c-5.8 0-7.6-0.6-7.7-6.1l23.1-0.1c1.7 0 2.2-0.4 2.2-2l0-2.3C250.4 109.1 246.6 104.8 231.4 104.9M225.1 122.5c0-5 2-6.5 6.3-6.5 4.3 0 6.1 1.5 6.1 6.5L225.1 122.5z"/><path class="st0" d="M281.7 105.7c-3.1-0.7-8.3-0.9-10.6-0.9 -7.9 0-14.2 1.5-14.2 11.3l0.1 29.8c0 0.8 0.4 1.2 1.1 1.2l10.7 0c0.7 0 1.1-0.4 1.1-1.2l-0.1-26.3c0-3.2 1.3-3.7 4.5-3.7l7.3 0c0.8 0 1.3-0.4 1.3-1.1l0-7.5C283 106.2 282.6 105.8 281.7 105.7"/><path class="st0" d="M305.9 104.7c-15.9 0-19.6 4.3-19.6 21.4 0 17.1 3.8 21.3 19.7 21.2 15.9 0 19.6-4.3 19.6-21.3C325.6 108.9 321.8 104.7 305.9 104.7M306 136.3c-5.6 0-6.7-2.1-6.7-10.2 0-8.2 1.1-10.3 6.7-10.3 5.6 0 6.7 2.1 6.7 10.3C312.7 134.2 311.6 136.3 306 136.3"/><path class="st0" d="M338 105.2c-3.7 0-5.9 1.9-5.9 6.1s2.2 6.1 5.9 6.1c3.8 0 6-2 6-6.1S341.7 105.2 338 105.2M338 116.2c-3 0-4.6-1.5-4.6-5 0-3.5 1.6-5 4.6-5 2.9 0 4.6 1.4 4.6 5C342.6 114.7 340.9 116.2 338 116.2"/><path class="st0" d="M340.5 110.1c0-1-0.8-2-2-2h-2.3c-0.3 0-0.5 0.2-0.5 0.5v5.2c0 0.3 0.3 0.6 0.6 0.6 0.3 0 0.6-0.3 0.6-0.6v-1.8h0.8l1.6 2.1c0.1 0.2 0.3 0.2 0.5 0.2 0.3 0 0.6-0.2 0.6-0.6 0-0.1 0-0.2-0.1-0.4l-1.3-1.4C339.8 112.1 340.5 111.3 340.5 110.1M338.4 111h-1.5v-1.8h1.5c0.6 0 1 0.4 1 0.9C339.3 110.7 339 111 338.4 111"/><path class="st0" d="M188.3 37.5h-24.2c-0.7 0-1.2 0.4-1.2 1.1v9.7c0 0.7 0.4 1.1 1.2 1.1h24.2c0.7 0 1.2-0.4 1.2-1.1v-9.7C189.5 37.8 189.1 37.5 188.3 37.5"/><path class="st0" d="M134.5 22c-15.9 0-19.7 4.2-19.7 21.4 0 17.1 3.8 21.3 19.7 21.3s19.7-4.2 19.7-21.3C154.2 26.3 150.4 22 134.5 22M134.5 53.6c-5.6 0-6.7-2.1-6.7-10.2 0-8.2 1.1-10.3 6.7-10.3s6.7 2.1 6.7 10.3C141.2 51.5 140.1 53.6 134.5 53.6"/><path class="st0" d="M237.1 43.5c0-17.1-3.8-21.4-19.7-21.4 -15.9 0-19.7 4.2-19.7 21.4 0 17.1 3.8 21.3 19.7 21.3C233.4 64.8 237.1 60.5 237.1 43.5M217.5 53.7c-5.6 0-6.7-2.1-6.7-10.2 0-8.2 1.1-10.3 6.7-10.3 5.6 0 6.7 2.1 6.7 10.3C224.2 51.6 223.1 53.7 217.5 53.7"/><path class="st0" d="M118.3 75.5c-2.1-2.6-3.9-5.6-5.6-8.8 -1.7-3.4-3-7-4-10.8 -1-3.8-1.5-8-1.5-12.7 0-4.5 0.5-8.7 1.5-12.7 1-3.9 2.4-7.6 4-10.8 1.7-3.4 3.6-6.4 5.6-8.9 2-2.5 4.1-4.8 6.3-6.8l0.2-0.1V2.1H109l-0.1 0.2c-2.4 2.9-4.6 5.8-6.5 8.8 -1.9 3-3.6 6.2-4.9 9.5 -1.2 3.1-2.2 6.5-3 10.2 -0.8 3.7-1.1 7.9-1.1 12.5 0 4.2 0.4 8.3 1.1 12.1 0.7 3.9 1.8 7.5 3.1 10.6 1.4 3.4 3.1 6.6 5 9.6 1.9 3 4.1 5.9 6.4 8.7l0.1 0.2h15.9v-1.9l-0.2-0.1C122.5 80.5 120.4 78.2 118.3 75.5"/><path class="st0" d="M257.6 31c-0.8-3.7-1.8-7.1-3-10.2 -1.3-3.4-3-6.6-4.9-9.5 -1.9-3-4.1-5.9-6.5-8.8L243 2.2h-15.9v1.9l0.2 0.1c2.2 2 4.3 4.3 6.3 6.8 2 2.5 3.9 5.5 5.6 8.9 1.6 3.2 3 6.9 4 10.8 1 3.9 1.5 8.2 1.5 12.7 0 4.7-0.5 8.9-1.5 12.7 -1 3.8-2.4 7.4-4 10.8 -1.6 3.2-3.5 6.2-5.6 8.8 -2.1 2.6-4.2 4.9-6.4 6.9l-0.2 0.1v1.9H243l0.1-0.2c2.3-2.8 4.5-5.7 6.4-8.7 1.9-3 3.6-6.2 5-9.6 1.3-3.2 2.3-6.8 3.1-10.6 0.7-3.9 1.1-8 1.1-12.1C258.7 38.9 258.3 34.7 257.6 31"/></svg>