<svg id="2f13062c-e6b6-450b-9877-80f7a59038eb" data-name="Layer 1" xmlns="http://www.w3.org/2000/svg" xmlns:xlink="http://www.w3.org/1999/xlink" width="128" height="32" viewBox="0 0 128 32"><defs><clipPath id="3160cb18-d9ef-48f1-b605-5f260a56127f"><path d="M124.75818,10.15893h-0.56662V9.45507h0.56662a0.33335,0.33335,0,0,1,.36728.35181A0.31985,0.31985,0,0,1,124.75818,10.15893Zm-0.13782,1.99194a1.60719,1.60719,0,0,1-1.74619-1.8999c0-1.3479.61288-1.89893,1.74619-1.89893a1.60569,1.60569,0,0,1,1.7457,1.89893A1.619,1.619,0,0,1,124.62036,12.15087Zm-0.01529-4.228a2.05146,2.05146,0,0,0-2.2518,2.32812,2.26812,2.26812,0,1,0,4.53369,0A2.05386,2.05386,0,0,0,124.60507,7.92285ZM112.41015,19.793c-2.143.00488-2.5679-.78394-2.5748-3.886-0.00638-3.12891.41452-3.91992,2.558-3.925,2.14261-.00391,2.56738.78394,2.57428,3.915C114.97458,18.998,114.55316,19.78906,112.41015,19.793Zm-0.02609-12.041c-6.06281.01392-7.49741,1.624-7.48309,8.166,0.01428,6.51392,1.45578,8.11792,7.51849,8.105,6.06229-.01294,7.49689-1.624,7.4826-8.137C119.88827,9.344,118.44677,7.739,112.38406,7.75195Zm-9.2392.35913A24.00042,24.00042,0,0,0,99.112,7.781c-3.0174.00708-5.413,0.57593-5.4046,4.3269l0.0246,11.363a0.38378,0.38378,0,0,0,.42389.45093l4.08862-.00879A0.38413,0.38413,0,0,0,98.66635,23.46L98.64477,13.42187c-0.003-1.21191.50458-1.41089,1.7171-1.41382l2.79138-.0061a0.40382,0.40382,0,0,0,.47852-0.42407l-0.00592-2.876A0.49552,0.49552,0,0,0,103.14486,8.11108ZM81.54046,14.531c-0.00439-1.918.75571-2.48315,2.41919-2.48706,1.63589-.00391,2.3139.55908,2.31781,2.47705Zm2.41031-6.717c-5.8934.01294-7.4126,1.624-7.39841,8.166,0.01428,6.51294,1.54,8.11694,7.43341,8.105a30.36347,30.36347,0,0,0,5.75159-.46411,0.41219,0.41219,0,0,0,.39389-0.481l-0.00589-2.875A0.37514,0.37514,0,0,0,89.701,19.842l-5.18839.012c-2.19922.00488-2.9046-.248-2.93762-2.334l8.798-.02c0.64841-.001.84531-0.16992,0.8443-0.76294l-0.002-.874C91.20157,9.406,89.75955,7.802,83.95077,7.814Zm-10.02832.4729A22.93706,22.93706,0,0,0,69.128,7.84594c-6.2597.01392-7.46878,1.624-7.45459,8.13794,0.01379,6.51318,1.23029,8.146,7.49,8.13306A22.842,22.842,0,0,0,73.956,23.655a0.52393,0.52393,0,0,0,.478-0.593L74.42807,20.3269a0.4216,0.4216,0,0,0-.50851-0.45l-4.76559.01c-2.143.00488-2.56729-.78394-2.57419-3.91406-0.0069-3.10205.41449-3.89185,2.5575-3.897l4.7655-.01a0.42144,0.42144,0,0,0,.5061-0.45288l-0.0054-2.73511A0.52468,0.52468,0,0,0,73.92245,8.28686ZM51.85037,19.925c-2.143.00488-2.5679-.78516-2.57431-3.886-0.0069-3.13013.41461-3.92017,2.55762-3.925,2.143-.00513,2.56738.78394,2.57428,3.91406C54.41476,19.12988,53.99337,19.91992,51.85037,19.925ZM51.82428,7.884c-6.06271.01294-7.49731,1.624-7.48312,8.166C44.35547,22.563,45.797,24.168,51.85977,24.154c6.06219-.01318,7.4968-1.623,7.483-8.13721C59.32855,9.47485,57.88705,7.87084,51.82428,7.884Zm-9.23911.35889a24.00019,24.00019,0,0,0-4.033-.32983c-3.0174.00586-5.4129,0.57593-5.405,4.32593l0.02512,11.364a0.38262,0.38262,0,0,0,.4238.45l4.08868-.009a0.38313,0.38313,0,0,0,.42191-0.4519L38.085,13.55395c-0.003-1.21289.50461-1.41089,1.71719-1.41406l2.79141-.00586A0.40478,0.40478,0,0,0,43.072,11.71L43.06567,8.834A0.49481,0.49481,0,0,0,42.58517,8.24291Zm-21.6044,6.41895c-0.00452-1.917.75558-2.48291,2.41919-2.48584,1.63589-.00415,2.31381.55786,2.31769,2.47583ZM23.391,7.946c-5.8934.01294-7.41269,1.6228-7.39838,8.165,0.01379,6.51392,1.53989,8.11792,7.43329,8.105a30.305,30.305,0,0,0,5.75171-.46411,0.41221,0.41221,0,0,0,.3938-0.48l-0.00641-2.876a0.37366,0.37366,0,0,0-.42389-0.42212l-5.18842.011c-2.19958.00513-2.90509-.24683-2.93759-2.334l8.798-.0188c0.64841-.00122.84531-0.17114,0.8439-0.76318l-0.002-.875C30.64126,9.53686,29.19977,7.93286,23.391,7.946ZM13.36276,8.418A22.9116,22.9116,0,0,0,8.56816,7.978c-6.26019.01392-7.4688,1.623-7.455,8.137,0.01431,6.51392,1.2303,8.147,7.4904,8.13306a22.90448,22.90448,0,0,0,4.79271-.46118,0.52507,0.52507,0,0,0,.478-0.593L13.86836,20.458a0.42165,0.42165,0,0,0-.50859-0.45l-4.7655.011c-2.143.00391-2.5674-.78516-2.57431-3.915-0.0069-3.10107.41451-3.89209,2.5576-3.896l4.7655-.011a0.42138,0.42138,0,0,0,.5061-0.45215L13.84326,9.01A0.52549,0.52549,0,0,0,13.36276,8.418Z" style="fill:none;clip-rule:evenodd"/></clipPath></defs><title>dfgdfg</title><g style="clip-path:url(#3160cb18-d9ef-48f1-b605-5f260a56127f)"><rect x="-76.87094" y="-4.64405" width="208.7579" height="41.51392"/></g></svg>