<svg id="63313754-1e1b-41f6-bfe8-a5a32932aade" data-name="Layer 1" xmlns="http://www.w3.org/2000/svg" xmlns:xlink="http://www.w3.org/1999/xlink" width="64" height="32" viewBox="0 0 64 32"><defs><clipPath id="d63bab36-ea3a-4544-8107-baa8eabe4af2"><path d="M63.1296,11.274a23.44308,23.44308,0,0,0-1.13871-3.8999A20.98273,20.98273,0,0,0,60.11865,3.734,34.41306,34.41306,0,0,0,57.63446.3761L57.57785,0.308H51.50769v0.73l0.062,0.05615A21.63981,21.63981,0,0,1,53.98794,3.684a20.13473,20.13473,0,0,1,2.13415,3.386,20.74539,20.74539,0,0,1,1.52518,4.1311,19.33567,19.33567,0,0,1,.58633,4.832A19.18268,19.18268,0,0,1,57.66351,20.88a21.35482,21.35482,0,0,1-1.54092,4.114,20.59982,20.59982,0,0,1-2.12037,3.356,19.87035,19.87035,0,0,1-2.43151,2.62012l-0.063.05688v0.73h6.06967l0.05661-.06689a32.51176,32.51176,0,0,0,2.44529-3.304,22.146,22.146,0,0,0,1.8949-3.66211,21.14887,21.14887,0,0,0,1.1712-4.062,24.976,24.976,0,0,0,.4219-4.62891A23.87469,23.87469,0,0,0,63.1296,11.274ZM9.99729,28.285a20.68936,20.68936,0,0,1-2.11938-3.355,21.28361,21.28361,0,0,1-1.54142-4.116,19.18182,19.18182,0,0,1-.57058-4.84692,19.33541,19.33541,0,0,1,.58634-4.832A20.74452,20.74452,0,0,1,7.87742,7.005a20.09642,20.09642,0,0,1,2.13464-3.386A21.51915,21.51915,0,0,1,12.43028,1.028l0.062-.05493V0.243H6.42216l-0.05662.06689A34.36532,34.36532,0,0,0,3.88136,3.66809,20.88594,20.88594,0,0,0,2.00911,7.309,23.37563,23.37563,0,0,0,.8704,11.20813a23.87979,23.87979,0,0,0-.43766,4.759,24.9348,24.9348,0,0,0,.42191,4.62891,21.14806,21.14806,0,0,0,1.17071,4.063,22.20862,22.20862,0,0,0,1.89489,3.66187A32.543,32.543,0,0,0,6.366,31.62415L6.42216,31.691h6.07015v-0.73l-0.06351-.05713A19.91929,19.91929,0,0,1,9.99729,28.285Zm37.82745-8.34692c-2.143,0-2.56591-.78906-2.56591-3.89111,0-3.12988.42289-3.91992,2.56591-3.91992,2.14351,0,2.5664.79,2.5664,3.91992C50.39114,19.149,49.96825,19.93811,47.82474,19.93811ZM55.326,16.047c0-6.542-1.43851-8.1499-7.5008-8.1499-6.06277,0-7.5008,1.60791-7.5008,8.1499,0,6.51416,1.438,8.12109,7.50031,8.12109C53.88751,24.16809,55.326,22.56116,55.326,16.047ZM16.17477,19.911c-2.143,0-2.5664-.78906-2.5664-3.89087,0-3.13013.42339-3.92017,2.5664-3.92017s2.56591,0.79,2.56591,3.92017C18.74068,19.12195,18.31779,19.911,16.17477,19.911Zm0-12.041C10.112,7.87,8.674,9.47815,8.674,16.02014c0,6.51392,1.438,8.12085,7.5008,8.12085,6.06228,0,7.5008-1.60693,7.5008-8.12085C23.67557,9.47815,22.237,7.87,16.17477,7.87ZM36.703,13.75012H27.459a0.39446,0.39446,0,0,0-.451.42285v3.69214a0.39446,0.39446,0,0,0,.451.42285H36.703a0.39424,0.39424,0,0,0,.451-0.42285V14.173A0.39424,0.39424,0,0,0,36.703,13.75012Z" style="fill:none;clip-rule:evenodd"/></clipPath></defs><title>Untitled-2</title><g style="clip-path:url(#d63bab36-ea3a-4544-8107-baa8eabe4af2)"><rect x="-4.56726" y="-4.75696" width="73.13452" height="41.51392"/></g></svg>